<mxfile host="app.diagrams.net" modified="2022-05-25T00:59:06.992Z" agent="5.0 (Windows NT 10.0; Win64; x64) AppleWebKit/537.36 (KHTML, like Gecko) Chrome/101.0.4951.67 Safari/537.36" etag="ruZSSRGN3coQPZNb8Fya" version="18.1.2" type="github" pages="2">
  <diagram id="-qenyoTqgR7UpVpyw3Sb" name="Page-1">
    <mxGraphModel dx="604" dy="945" grid="1" gridSize="10" guides="1" tooltips="1" connect="1" arrows="1" fold="1" page="1" pageScale="1" pageWidth="850" pageHeight="1100" math="0" shadow="0">
      <root>
        <mxCell id="0" />
        <mxCell id="1" parent="0" />
        <mxCell id="LcnUamlL2Uku5nqDl7iE-19" value="Customers" style="swimlane;fontStyle=1;align=center;verticalAlign=top;childLayout=stackLayout;horizontal=1;startSize=26;horizontalStack=0;resizeParent=1;resizeParentMax=0;resizeLast=0;collapsible=1;marginBottom=0;direction=east;" vertex="1" parent="1">
          <mxGeometry x="25" y="40" width="180" height="110" as="geometry">
            <mxRectangle x="90" y="210" width="200" height="140" as="alternateBounds" />
          </mxGeometry>
        </mxCell>
        <mxCell id="LcnUamlL2Uku5nqDl7iE-20" value="- cFirstName : String&#xa;- cLastName : String&#xa;- cPhone : String&#xa;- cStreet : String&#xa;- cZipCode: String&#xa;" style="text;strokeColor=none;fillColor=none;align=left;verticalAlign=top;spacingLeft=4;spacingRight=4;overflow=hidden;rotatable=0;points=[[0,0.5],[1,0.5]];portConstraint=eastwest;direction=north;fontSize=11;" vertex="1" parent="LcnUamlL2Uku5nqDl7iE-19">
          <mxGeometry y="26" width="180" height="74" as="geometry" />
        </mxCell>
        <mxCell id="LcnUamlL2Uku5nqDl7iE-21" value="" style="line;strokeWidth=1;fillColor=none;align=left;verticalAlign=middle;spacingTop=-1;spacingLeft=3;spacingRight=3;rotatable=0;labelPosition=right;points=[];portConstraint=eastwest;" vertex="1" parent="LcnUamlL2Uku5nqDl7iE-19">
          <mxGeometry y="100" width="180" height="10" as="geometry" />
        </mxCell>
        <mxCell id="LcnUamlL2Uku5nqDl7iE-63" value="Order" style="swimlane;fontStyle=1;align=center;verticalAlign=top;childLayout=stackLayout;horizontal=1;startSize=26;horizontalStack=0;resizeParent=1;resizeParentMax=0;resizeLast=0;collapsible=1;marginBottom=0;fontFamily=Helvetica;strokeColor=default;fillColor=default;" vertex="1" parent="1">
          <mxGeometry x="35" y="290" width="160" height="88" as="geometry" />
        </mxCell>
        <mxCell id="LcnUamlL2Uku5nqDl7iE-64" value="- orderDate: Date&#xa;- soldBy: String" style="text;strokeColor=none;fillColor=none;align=left;verticalAlign=top;spacingLeft=4;spacingRight=4;overflow=hidden;rotatable=0;points=[[0,0.5],[1,0.5]];portConstraint=eastwest;fontFamily=Helvetica;" vertex="1" parent="LcnUamlL2Uku5nqDl7iE-63">
          <mxGeometry y="26" width="160" height="54" as="geometry" />
        </mxCell>
        <mxCell id="LcnUamlL2Uku5nqDl7iE-65" value="" style="line;strokeWidth=1;fillColor=none;align=left;verticalAlign=middle;spacingTop=-1;spacingLeft=3;spacingRight=3;rotatable=0;labelPosition=right;points=[];portConstraint=eastwest;fontFamily=Helvetica;" vertex="1" parent="LcnUamlL2Uku5nqDl7iE-63">
          <mxGeometry y="80" width="160" height="8" as="geometry" />
        </mxCell>
        <mxCell id="LcnUamlL2Uku5nqDl7iE-72" value="" style="endArrow=none;html=1;edgeStyle=orthogonalEdgeStyle;rounded=0;fontFamily=Helvetica;exitX=0.5;exitY=1;exitDx=0;exitDy=0;entryX=0.5;entryY=0;entryDx=0;entryDy=0;" edge="1" parent="1" source="LcnUamlL2Uku5nqDl7iE-19" target="LcnUamlL2Uku5nqDl7iE-63">
          <mxGeometry relative="1" as="geometry">
            <mxPoint x="80" y="168" as="sourcePoint" />
            <mxPoint x="80" y="378" as="targetPoint" />
          </mxGeometry>
        </mxCell>
        <mxCell id="LcnUamlL2Uku5nqDl7iE-73" value="1..1" style="edgeLabel;resizable=0;html=1;align=left;verticalAlign=top;fontFamily=Helvetica;strokeColor=default;fillColor=default;labelPosition=right;verticalLabelPosition=bottom;" connectable="0" vertex="1" parent="LcnUamlL2Uku5nqDl7iE-72">
          <mxGeometry x="-1" relative="1" as="geometry" />
        </mxCell>
        <mxCell id="LcnUamlL2Uku5nqDl7iE-74" value="0..*" style="edgeLabel;resizable=0;html=1;align=right;verticalAlign=bottom;fontFamily=Helvetica;strokeColor=default;fillColor=default;labelPosition=left;verticalLabelPosition=top;" connectable="0" vertex="1" parent="LcnUamlL2Uku5nqDl7iE-72">
          <mxGeometry x="1" relative="1" as="geometry" />
        </mxCell>
        <mxCell id="LcnUamlL2Uku5nqDl7iE-75" value="places" style="edgeLabel;html=1;align=center;verticalAlign=middle;resizable=0;points=[];fontFamily=Helvetica;" vertex="1" connectable="0" parent="LcnUamlL2Uku5nqDl7iE-72">
          <mxGeometry x="-0.0544" y="1" relative="1" as="geometry">
            <mxPoint x="-1" as="offset" />
          </mxGeometry>
        </mxCell>
      </root>
    </mxGraphModel>
  </diagram>
  <diagram id="slKI8lKvA-Sp58fxzbaR" name="Page-2">
    <mxGraphModel dx="579" dy="906" grid="1" gridSize="10" guides="1" tooltips="1" connect="1" arrows="1" fold="1" page="1" pageScale="1" pageWidth="850" pageHeight="1100" math="0" shadow="0">
      <root>
        <mxCell id="0" />
        <mxCell id="1" parent="0" />
        <mxCell id="je0GYEWPbuGwC7Sf_CHA-1" value="Customers" style="text;html=1;strokeColor=none;fillColor=none;align=center;verticalAlign=middle;whiteSpace=wrap;rounded=0;" vertex="1" parent="1">
          <mxGeometry x="90" y="240" width="70" height="20" as="geometry" />
        </mxCell>
        <mxCell id="je0GYEWPbuGwC7Sf_CHA-2" value="cFirstName" style="rounded=0;whiteSpace=wrap;html=1;" vertex="1" parent="1">
          <mxGeometry x="90" y="260" width="80" height="20" as="geometry" />
        </mxCell>
        <mxCell id="je0GYEWPbuGwC7Sf_CHA-3" value="cLastName" style="rounded=0;whiteSpace=wrap;html=1;" vertex="1" parent="1">
          <mxGeometry x="170" y="260" width="80" height="20" as="geometry" />
        </mxCell>
        <mxCell id="je0GYEWPbuGwC7Sf_CHA-4" value="cPhone" style="rounded=0;whiteSpace=wrap;html=1;" vertex="1" parent="1">
          <mxGeometry x="250" y="260" width="80" height="20" as="geometry" />
        </mxCell>
        <mxCell id="je0GYEWPbuGwC7Sf_CHA-5" value="cStreet" style="rounded=0;whiteSpace=wrap;html=1;strokeColor=default;" vertex="1" parent="1">
          <mxGeometry x="330" y="260" width="80" height="20" as="geometry" />
        </mxCell>
        <mxCell id="je0GYEWPbuGwC7Sf_CHA-6" value="cZipCode" style="rounded=0;whiteSpace=wrap;html=1;" vertex="1" parent="1">
          <mxGeometry x="410" y="260" width="80" height="20" as="geometry" />
        </mxCell>
        <mxCell id="je0GYEWPbuGwC7Sf_CHA-7" value="Primary Key" style="text;html=1;strokeColor=default;fillColor=#ffc50a;align=center;verticalAlign=middle;whiteSpace=wrap;rounded=0;" vertex="1" parent="1">
          <mxGeometry x="90" y="280" width="240" height="20" as="geometry" />
        </mxCell>
        <mxCell id="je0GYEWPbuGwC7Sf_CHA-8" value="Orders" style="text;html=1;strokeColor=none;fillColor=none;align=center;verticalAlign=middle;whiteSpace=wrap;rounded=0;" vertex="1" parent="1">
          <mxGeometry x="90" y="490" width="70" height="20" as="geometry" />
        </mxCell>
        <mxCell id="je0GYEWPbuGwC7Sf_CHA-9" value="cFirstName" style="rounded=0;whiteSpace=wrap;html=1;" vertex="1" parent="1">
          <mxGeometry x="90" y="530" width="80" height="20" as="geometry" />
        </mxCell>
        <mxCell id="je0GYEWPbuGwC7Sf_CHA-10" value="cLastName" style="rounded=0;whiteSpace=wrap;html=1;" vertex="1" parent="1">
          <mxGeometry x="170" y="530" width="80" height="20" as="geometry" />
        </mxCell>
        <mxCell id="je0GYEWPbuGwC7Sf_CHA-11" value="cPhone" style="rounded=0;whiteSpace=wrap;html=1;" vertex="1" parent="1">
          <mxGeometry x="250" y="530" width="80" height="20" as="geometry" />
        </mxCell>
        <mxCell id="je0GYEWPbuGwC7Sf_CHA-12" value="orderDate" style="rounded=0;whiteSpace=wrap;html=1;strokeColor=default;" vertex="1" parent="1">
          <mxGeometry x="330" y="530" width="80" height="20" as="geometry" />
        </mxCell>
        <mxCell id="je0GYEWPbuGwC7Sf_CHA-13" value="soldBy" style="rounded=0;whiteSpace=wrap;html=1;" vertex="1" parent="1">
          <mxGeometry x="410" y="530" width="80" height="20" as="geometry" />
        </mxCell>
        <mxCell id="je0GYEWPbuGwC7Sf_CHA-14" value="Primary Key" style="text;html=1;strokeColor=default;fillColor=#FFC50A;align=center;verticalAlign=middle;whiteSpace=wrap;rounded=0;" vertex="1" parent="1">
          <mxGeometry x="90" y="550" width="320" height="20" as="geometry" />
        </mxCell>
        <mxCell id="je0GYEWPbuGwC7Sf_CHA-15" value="Foreign Key" style="text;html=1;strokeColor=default;fillColor=#1c90f8;align=center;verticalAlign=middle;whiteSpace=wrap;rounded=0;" vertex="1" parent="1">
          <mxGeometry x="90" y="510" width="240" height="20" as="geometry" />
        </mxCell>
        <mxCell id="je0GYEWPbuGwC7Sf_CHA-16" value="" style="endArrow=none;html=1;edgeStyle=orthogonalEdgeStyle;rounded=0;fontFamily=Helvetica;exitX=0.75;exitY=1;exitDx=0;exitDy=0;entryX=0.75;entryY=0;entryDx=0;entryDy=0;" edge="1" parent="1" source="je0GYEWPbuGwC7Sf_CHA-7" target="je0GYEWPbuGwC7Sf_CHA-15">
          <mxGeometry relative="1" as="geometry">
            <mxPoint x="200" y="380" as="sourcePoint" />
            <mxPoint x="360" y="380" as="targetPoint" />
          </mxGeometry>
        </mxCell>
        <mxCell id="je0GYEWPbuGwC7Sf_CHA-17" value="1..1" style="edgeLabel;resizable=0;html=1;align=left;verticalAlign=top;fontFamily=Helvetica;strokeColor=default;fillColor=default;labelPosition=right;verticalLabelPosition=bottom;" connectable="0" vertex="1" parent="je0GYEWPbuGwC7Sf_CHA-16">
          <mxGeometry x="-1" relative="1" as="geometry" />
        </mxCell>
        <mxCell id="je0GYEWPbuGwC7Sf_CHA-18" value="0..*" style="edgeLabel;resizable=0;html=1;align=left;verticalAlign=bottom;fontFamily=Helvetica;strokeColor=default;fillColor=default;labelPosition=right;verticalLabelPosition=top;" connectable="0" vertex="1" parent="je0GYEWPbuGwC7Sf_CHA-16">
          <mxGeometry x="1" relative="1" as="geometry" />
        </mxCell>
        <mxCell id="je0GYEWPbuGwC7Sf_CHA-19" value="places" style="edgeLabel;html=1;align=center;verticalAlign=middle;resizable=0;points=[];fontFamily=Helvetica;" vertex="1" connectable="0" parent="je0GYEWPbuGwC7Sf_CHA-16">
          <mxGeometry x="-0.0544" y="1" relative="1" as="geometry">
            <mxPoint x="-1" as="offset" />
          </mxGeometry>
        </mxCell>
      </root>
    </mxGraphModel>
  </diagram>
</mxfile>
